<svg xmlns="http://www.w3.org/2000/svg" width="18" height="15" fill="none" viewBox="0 0 18 15">
    <circle cx="9.012" cy="7.229" r="3.25" stroke="#0072CB" stroke-width="1.5"/>
    <path stroke="#0072CB" stroke-width="1.5" d="M17.25 7c0 .56-.227 1.248-.697 1.996-.465.74-1.137 1.493-1.947 2.167-1.636 1.36-3.722 2.316-5.606 2.316-1.885 0-3.97-.956-5.606-2.316-.81-.674-1.482-1.426-1.947-2.167C.977 8.248.75 7.56.75 7c0-.531.25-1.19.773-1.923.515-.722 1.253-1.451 2.113-2.105C5.383 1.646 7.476.75 9 .75c1.525 0 3.617.896 5.364 2.222.86.654 1.598 1.383 2.113 2.105.524.732.773 1.392.773 1.923z"/>
</svg>
